<svg xmlns="http://www.w3.org/2000/svg" width="24" height="24" viewBox="0 0 32 32">
  <path fill="#25D366" d="M16 0C7.163 0 0 7.163 0 16c0 2.82.737 5.573 2.135 7.994L0 32l8.23-2.086A15.93 15.93 0 0 0 16 32c8.837 0 16-7.163 16-16S24.837 0 16 0z"></path>
  <path fill="#fff" d="M24.41 19.02c-.36-.18-2.13-1.05-2.46-1.17-.33-.12-.57-.18-.81.18-.24.36-.93 1.17-1.14 1.41-.21.24-.42.27-.78.09-.36-.18-1.53-.56-2.91-1.78-1.07-.95-1.79-2.13-2-2.49-.21-.36-.02-.55.16-.73.16-.16.36-.42.54-.63.18-.21.24-.36.36-.6.12-.24.06-.45-.03-.63-.09-.18-.81-1.95-1.11-2.67-.3-.72-.6-.62-.81-.63-.21-.01-.45-.01-.69-.01-.24 0-.63.09-.96.45-.33.36-1.26 1.23-1.26 3 0 1.77 1.29 3.48 1.47 3.72.18.24 2.54 3.88 6.16 5.44.86.37 1.53.59 2.05.75.86.27 1.65.23 2.27.14.69-.1 2.13-.87 2.43-1.71.3-.84.3-1.56.21-1.71-.09-.15-.33-.24-.69-.42z"></path>
</svg>
